<svg viewBox="0 0 48 40" fill="none" xmlns="http://www.w3.org/2000/svg">
<path d="M2.62264 11.7264C1.9728 11.2623 1.64788 11.0302 1.36459 11C0.940951 10.955 0.516373 11.1735 0.306805 11.5444C0.16667 11.7924 0.166676 12.1873 0.166688 12.9772V27.0228C0.166661 28.7669 0.166639 30.2064 0.262443 31.379C0.361947 32.5968 0.575503 33.7164 1.1113 34.7679C1.9422 36.3987 3.26803 37.7245 4.89877 38.5554C5.95033 39.0912 7.06986 39.3047 8.28773 39.4043C9.46031 39.5 10.8997 39.5 12.6438 39.5H35.3562C37.1003 39.5 38.5397 39.5 39.7123 39.4043C40.9302 39.3047 42.0497 39.0912 43.1013 38.5554C44.732 37.7245 46.0578 36.3987 46.8887 34.7679C47.4245 33.7164 47.6381 32.5968 47.7376 31.379C47.8334 30.2064 47.8334 28.7669 47.8334 27.0229V12.9771C47.8334 12.59 47.8334 12.3965 47.7979 12.2613C47.6376 11.6502 46.9733 11.3022 46.3796 11.5182C46.2483 11.566 46.0871 11.6775 45.7648 11.9007L28.9902 23.5142C27.8008 24.3402 26.7565 25.0654 25.5702 25.353C24.5325 25.6045 23.4489 25.5965 22.415 25.3298C21.233 25.0248 20.1995 24.2843 19.0224 23.4409L2.62264 11.7264Z" fill="#FBC02D"/>
<path d="M45.9544 6.49889C46.3544 6.22199 46.5544 6.08354 46.6772 5.86086C46.7726 5.68793 46.8272 5.41409 46.8053 5.21781C46.7772 4.96505 46.6698 4.79817 46.4549 4.46442C45.6319 3.18589 44.4475 2.13054 43.1013 1.44461C42.0497 0.908816 40.9302 0.69526 39.7123 0.595756C38.5397 0.499952 37.1003 0.499974 35.3562 0.500001H12.6439C10.8998 0.499974 9.46032 0.499952 8.28773 0.595756C7.06986 0.69526 5.95033 0.908816 4.89877 1.44461C3.68754 2.06177 2.64059 2.95397 1.84448 4.03892C1.59401 4.38026 1.46878 4.55093 1.42752 4.80995C1.39526 5.01251 1.44031 5.2939 1.5342 5.47626C1.65426 5.70946 1.86252 5.85821 2.27903 6.15571L21.2918 19.7362C22.8674 20.8617 23.2018 21.0575 23.4977 21.1339C23.8423 21.2228 24.2035 21.2254 24.5494 21.1416C24.8464 21.0696 25.1836 20.8787 26.7756 19.7766L45.9544 6.49889Z" fill="#FBC02D"/>
</svg>
